<svg xmlns="http://www.w3.org/2000/svg" width="20" height="18" viewBox="0 0 20 18">
    <defs>
        <style>
            .cls-1{fill:#ff671f}
        </style>
    </defs>
    <g id="Component_1" data-name="Component 1">
        <path id="Path_108" d="M.762-5.053l.229 3.937a.419.419 0 0 0 .416.4h1.436a.424.424 0 0 0 .416-.4l.229-3.938a.42.42 0 0 0-.416-.446H1.178a.42.42 0 0 0-.416.447zm2.821 6.3a1.458 1.458 0 1 0-2.917 0 1.458 1.458 0 1 0 2.917 0zm-.014-12.654a1.657 1.657 0 0 0-2.887 0L-7.65 3.219A1.689 1.689 0 0 0-6.206 5.75h16.662A1.689 1.689 0 0 0 11.9 3.219zm-9.6 15.153l7.976-13.992a.207.207 0 0 1 .361 0l7.972 13.992a.211.211 0 0 1-.18.316H-5.848a.211.211 0 0 1-.18-.316z" class="cls-1" data-name="Path 108" transform="translate(7.875 12.25)"/>
    </g>
</svg>
